<svg xmlns="http://www.w3.org/2000/svg" viewBox="0 0 512 512"><rect width="512" height="512" rx="64" fill="#F7F5F0"/><path fill="#1B1B18" d="M237 414.7Q224.7 414.7 206.9 409.2Q189.1 403.6 171.8 394.8Q154.6 386.1 144 377.3L152.2 358Q168 363.9 185.8 366.5Q203.7 369.1 223.6 369.1Q267.4 369.1 298.7 343.1Q330 317.1 346.3 267.4L345.7 262.7Q328.8 279.1 308.3 287.6Q287.9 296 267.4 296Q233.5 296 213.9 275.3Q194.3 254.5 194.3 220.6Q194.3 190.8 206.3 161.9Q218.3 132.9 237.6 114.8Q256.9 97.3 276.8 97.3Q299.6 97.3 320.3 117.4Q341.1 137.6 354.5 175Q361.5 193.7 364.7 212.2Q368 230.6 368 248.7Q368 276.2 359.5 303.6Q351 331.1 336.1 354.2Q321.2 377.3 301.3 392.5Q270.9 414.7 237 414.7ZM281.4 248.1Q296 248.1 308 245.8Q320 243.4 340.5 235.2Q333.5 207.8 320.6 186.7Q307.7 165.7 292.5 155.7Q280.3 147 268 147Q255.7 147 244 156Q232.3 165.1 224.1 179.1Q216.5 193.2 216.5 204.3Q216.5 225.3 233.5 236.7Q250.4 248.1 281.4 248.1Z"/></svg>
